<?xml version="1.0" encoding="UTF-8" standalone="no"?>
<!DOCTYPE svg PUBLIC "-//W3C//DTD SVG 1.1//EN"
 "http://www.w3.org/Graphics/SVG/1.1/DTD/svg11.dtd">
<!-- Generated by graphviz version 2.42.4 (0)
 -->
<!-- Pages: 1 -->
<svg width="350pt" height="332pt"
 viewBox="0.00 0.00 350.00 332.00" xmlns="http://www.w3.org/2000/svg" xmlns:xlink="http://www.w3.org/1999/xlink">
<g id="graph0" class="graph" transform="scale(1 1) rotate(0) translate(4 328)">
<!-- Water_in -->
<g id="node1" class="node">
<title>Water_in</title>
<polygon fill="#77ff77" fill-opacity="0.188235" stroke="#77ff77" stroke-opacity="0.533333" points="83,-324 0,-324 0,-288 83,-288 83,-324"/>
<text text-anchor="middle" x="41.5" y="-302.3" font-family="monospace" font-size="14.00" fill="white">Water_in</text>
</g>
<!-- Watering_manifold -->
<g id="node4" class="node">
<title>Watering_manifold</title>
<polygon fill="#77ff77" fill-opacity="0.188235" stroke="#77ff77" stroke-opacity="0.533333" points="225,-252 68,-252 68,-216 225,-216 225,-252"/>
<text text-anchor="middle" x="146.5" y="-230.3" font-family="monospace" font-size="14.00" fill="white">Watering_manifold</text>
</g>
<!-- Water_in&#45;&gt;Watering_manifold -->
<g id="edge1" class="edge">
<title>Water_in&#45;&gt;Watering_manifold</title>
<path fill="none" stroke="#ffffff" stroke-opacity="0.439216" d="M67.19,-287.88C80.79,-278.81 97.67,-267.55 112.36,-257.76"/>
<polygon fill="transparent" stroke="#ffffff" stroke-opacity="0.439216" points="114.34,-260.65 120.72,-252.19 110.45,-254.82 114.34,-260.65"/>
</g>
<!-- Water_out -->
<g id="node2" class="node">
<title>Water_out</title>
<polygon fill="#77ff77" fill-opacity="0.188235" stroke="#77ff77" stroke-opacity="0.533333" points="192,-324 101,-324 101,-288 192,-288 192,-324"/>
<text text-anchor="middle" x="146.5" y="-302.3" font-family="monospace" font-size="14.00" fill="white">Water_out</text>
</g>
<!-- Water_out&#45;&gt;Watering_manifold -->
<g id="edge2" class="edge">
<title>Water_out&#45;&gt;Watering_manifold</title>
<path fill="none" stroke="#ffffff" stroke-opacity="0.439216" d="M146.5,-287.7C146.5,-279.98 146.5,-270.71 146.5,-262.11"/>
<polygon fill="transparent" stroke="#ffffff" stroke-opacity="0.439216" points="150,-262.1 146.5,-252.1 143,-262.1 150,-262.1"/>
</g>
<!-- Power -->
<g id="node3" class="node">
<title>Power</title>
<polygon fill="#77ff77" fill-opacity="0.188235" stroke="#77ff77" stroke-opacity="0.533333" points="268.5,-324 210.5,-324 210.5,-288 268.5,-288 268.5,-324"/>
<text text-anchor="middle" x="239.5" y="-302.3" font-family="monospace" font-size="14.00" fill="white">Power</text>
</g>
<!-- Power&#45;&gt;Watering_manifold -->
<g id="edge3" class="edge">
<title>Power&#45;&gt;Watering_manifold</title>
<path fill="none" stroke="#ffffff" stroke-opacity="0.439216" d="M216.51,-287.7C204.69,-278.8 190.11,-267.82 177.32,-258.2"/>
<polygon fill="transparent" stroke="#ffffff" stroke-opacity="0.439216" points="179.32,-255.32 169.22,-252.1 175.11,-260.91 179.32,-255.32"/>
</g>
<!-- Fertilizer_module -->
<g id="node6" class="node">
<title>Fertilizer_module</title>
<polygon fill="#77ff77" fill-opacity="0.188235" stroke="#77ff77" stroke-opacity="0.533333" points="225,-180 68,-180 68,-144 225,-144 225,-180"/>
<text text-anchor="middle" x="146.5" y="-158.3" font-family="monospace" font-size="14.00" fill="white">Fertilizer_module</text>
</g>
<!-- Watering_manifold&#45;&gt;Fertilizer_module -->
<g id="edge5" class="edge">
<title>Watering_manifold&#45;&gt;Fertilizer_module</title>
<path fill="none" stroke="#ffffff" stroke-opacity="0.439216" d="M140.58,-215.7C139.79,-207.98 139.56,-198.71 139.9,-190.11"/>
<polygon fill="transparent" stroke="#ffffff" stroke-opacity="0.439216" points="143.4,-190.32 140.6,-180.1 136.42,-189.84 143.4,-190.32"/>
</g>
<!-- Fertilizer -->
<g id="node5" class="node">
<title>Fertilizer</title>
<polygon fill="#77ff77" fill-opacity="0.188235" stroke="#77ff77" stroke-opacity="0.533333" points="342,-252 243,-252 243,-216 342,-216 342,-252"/>
<text text-anchor="middle" x="292.5" y="-230.3" font-family="monospace" font-size="14.00" fill="white">Fertilizer</text>
</g>
<!-- Fertilizer&#45;&gt;Fertilizer_module -->
<g id="edge4" class="edge">
<title>Fertilizer&#45;&gt;Fertilizer_module</title>
<path fill="none" stroke="#ffffff" stroke-opacity="0.439216" d="M256.78,-215.88C237,-206.39 212.23,-194.51 191.17,-184.42"/>
<polygon fill="transparent" stroke="#ffffff" stroke-opacity="0.439216" points="192.63,-181.24 182.1,-180.07 189.6,-187.55 192.63,-181.24"/>
</g>
<!-- Fertilizer_module&#45;&gt;Watering_manifold -->
<g id="edge10" class="edge">
<title>Fertilizer_module&#45;&gt;Watering_manifold</title>
<path fill="none" stroke="#ffffff" stroke-opacity="0.439216" d="M152.4,-180.1C153.2,-187.79 153.44,-197.05 153.1,-205.67"/>
<polygon fill="transparent" stroke="#ffffff" stroke-opacity="0.439216" points="149.61,-205.48 152.42,-215.7 156.59,-205.96 149.61,-205.48"/>
</g>
<!-- Sterilization_module -->
<g id="node7" class="node">
<title>Sterilization_module</title>
<polygon fill="#77ff77" fill-opacity="0.188235" stroke="#77ff77" stroke-opacity="0.533333" points="237.5,-108 55.5,-108 55.5,-72 237.5,-72 237.5,-108"/>
<text text-anchor="middle" x="146.5" y="-86.3" font-family="monospace" font-size="14.00" fill="white">Sterilization_module</text>
</g>
<!-- Fertilizer_module&#45;&gt;Sterilization_module -->
<g id="edge6" class="edge">
<title>Fertilizer_module&#45;&gt;Sterilization_module</title>
<path fill="none" stroke="#ffffff" stroke-opacity="0.439216" d="M140.58,-143.7C139.79,-135.98 139.56,-126.71 139.9,-118.11"/>
<polygon fill="transparent" stroke="#ffffff" stroke-opacity="0.439216" points="143.4,-118.32 140.6,-108.1 136.42,-117.84 143.4,-118.32"/>
</g>
<!-- Sterilization_module&#45;&gt;Fertilizer_module -->
<g id="edge9" class="edge">
<title>Sterilization_module&#45;&gt;Fertilizer_module</title>
<path fill="none" stroke="#ffffff" stroke-opacity="0.439216" d="M152.4,-108.1C153.2,-115.79 153.44,-125.05 153.1,-133.67"/>
<polygon fill="transparent" stroke="#ffffff" stroke-opacity="0.439216" points="149.61,-133.48 152.42,-143.7 156.59,-133.96 149.61,-133.48"/>
</g>
<!-- X_module -->
<g id="node8" class="node">
<title>X_module</title>
<polygon fill="#77ff77" fill-opacity="0.188235" stroke="#77ff77" stroke-opacity="0.533333" points="188,-36 105,-36 105,0 188,0 188,-36"/>
<text text-anchor="middle" x="146.5" y="-14.3" font-family="monospace" font-size="14.00" fill="white">X_module</text>
</g>
<!-- Sterilization_module&#45;&gt;X_module -->
<g id="edge7" class="edge">
<title>Sterilization_module&#45;&gt;X_module</title>
<path fill="none" stroke="#ffffff" stroke-opacity="0.439216" d="M140.58,-71.7C139.79,-63.98 139.56,-54.71 139.9,-46.11"/>
<polygon fill="transparent" stroke="#ffffff" stroke-opacity="0.439216" points="143.4,-46.32 140.6,-36.1 136.42,-45.84 143.4,-46.32"/>
</g>
<!-- X_module&#45;&gt;Sterilization_module -->
<g id="edge8" class="edge">
<title>X_module&#45;&gt;Sterilization_module</title>
<path fill="none" stroke="#ffffff" stroke-opacity="0.439216" d="M152.4,-36.1C153.2,-43.79 153.44,-53.05 153.1,-61.67"/>
<polygon fill="transparent" stroke="#ffffff" stroke-opacity="0.439216" points="149.61,-61.48 152.42,-71.7 156.59,-61.96 149.61,-61.48"/>
</g>
</g>
</svg>
