<?xml version="1.0" encoding="UTF-8" standalone="no"?>
<!DOCTYPE svg PUBLIC "-//W3C//DTD SVG 1.1//EN"
 "http://www.w3.org/Graphics/SVG/1.1/DTD/svg11.dtd">
<!-- Generated by graphviz version 2.42.4 (0)
 -->
<!-- Pages: 1 -->
<svg width="165pt" height="41pt"
 viewBox="0.00 0.00 164.74 40.54" xmlns="http://www.w3.org/2000/svg" xmlns:xlink="http://www.w3.org/1999/xlink">
<g id="graph0" class="graph" transform="scale(1 1) rotate(0) translate(4 36.54)">
<!-- bla -->
<g id="node1" class="node">
<title>bla</title>
<polygon fill="none" stroke="#ffffff" stroke-opacity="0.600000" points="31.43,-0.27 33.2,-0.36 34.96,-0.49 36.69,-0.67 38.39,-0.88 40.05,-1.14 41.67,-1.44 43.23,-1.79 44.73,-2.17 46.17,-2.59 47.54,-3.04 48.84,-3.54 50.06,-4.07 51.2,-4.63 52.25,-5.22 53.22,-5.85 54.09,-6.5 54.87,-7.18 55.56,-7.88 56.15,-8.61 56.65,-9.36 57.05,-10.13 57.36,-10.91 57.58,-11.71 57.7,-12.52 57.73,-13.34 57.68,-14.17 57.54,-15.01 57.31,-15.85 57.01,-16.69 56.63,-17.53 56.18,-18.36 55.66,-19.19 55.08,-20.02 54.43,-20.83 53.72,-21.63 52.97,-22.41 52.16,-23.18 51.3,-23.93 50.41,-24.65 49.48,-25.36 48.51,-26.04 47.51,-26.69 46.48,-27.31 45.43,-27.91 44.35,-28.47 43.26,-29 42.15,-29.49 41.02,-29.95 39.89,-30.37 38.74,-30.75 37.58,-31.09 36.42,-31.4 35.24,-31.66 34.07,-31.87 32.89,-32.05 31.71,-32.18 30.52,-32.27 29.34,-32.31 28.15,-32.31 26.96,-32.27 25.78,-32.18 24.6,-32.05 23.42,-31.87 22.24,-31.66 21.07,-31.4 19.91,-31.09 18.75,-30.75 17.6,-30.37 16.46,-29.95 15.34,-29.49 14.23,-29 13.13,-28.47 12.06,-27.91 11.01,-27.31 9.98,-26.69 8.98,-26.04 8.01,-25.36 7.08,-24.65 6.18,-23.93 5.33,-23.18 4.52,-22.41 3.76,-21.63 3.06,-20.83 2.41,-20.02 1.83,-19.19 1.3,-18.36 0.85,-17.53 0.47,-16.69 0.17,-15.85 -0.05,-15.01 -0.19,-14.17 -0.25,-13.34 -0.21,-12.52 -0.09,-11.71 0.13,-10.91 0.43,-10.13 0.84,-9.36 1.34,-8.61 1.93,-7.88 2.62,-7.18 3.4,-6.5 4.27,-5.85 5.24,-5.22 6.29,-4.63 7.43,-4.07 8.65,-3.54 9.94,-3.04 11.31,-2.59 12.75,-2.17 14.26,-1.79 15.82,-1.44 17.44,-1.14 19.1,-0.88 20.79,-0.67 22.53,-0.49 24.28,-0.36 26.06,-0.27 27.85,-0.23 29.64,-0.23 31.43,-0.27"/>
<text text-anchor="middle" x="28.74" y="-12.57" font-family="terminus" font-size="14.00" fill="white">bla</text>
</g>
<!-- lala -->
<g id="node2" class="node">
<title>lala</title>
<polygon fill="none" stroke="#ffffff" stroke-opacity="0.600000" points="128.05,-0.27 130,-0.36 131.92,-0.49 133.82,-0.67 135.68,-0.88 137.5,-1.14 139.27,-1.44 140.98,-1.79 142.63,-2.17 144.21,-2.59 145.71,-3.04 147.13,-3.54 148.46,-4.07 149.71,-4.63 150.86,-5.22 151.92,-5.85 152.88,-6.5 153.73,-7.18 154.49,-7.88 155.14,-8.61 155.68,-9.36 156.12,-10.13 156.46,-10.91 156.7,-11.71 156.83,-12.52 156.87,-13.34 156.81,-14.17 156.65,-15.01 156.41,-15.85 156.08,-16.69 155.66,-17.53 155.17,-18.36 154.6,-19.19 153.96,-20.02 153.25,-20.83 152.48,-21.63 151.65,-22.41 150.76,-23.18 149.83,-23.93 148.85,-24.65 147.82,-25.36 146.76,-26.04 145.67,-26.69 144.54,-27.31 143.39,-27.91 142.21,-28.47 141.01,-29 139.8,-29.49 138.57,-29.95 137.32,-30.37 136.06,-30.75 134.79,-31.09 133.52,-31.4 132.23,-31.66 130.95,-31.87 129.65,-32.05 128.36,-32.18 127.06,-32.27 125.76,-32.31 124.46,-32.31 123.17,-32.27 121.87,-32.18 120.57,-32.05 119.28,-31.87 117.99,-31.66 116.71,-31.4 115.43,-31.09 114.17,-30.75 112.91,-30.37 111.66,-29.95 110.43,-29.49 109.21,-29 108.01,-28.47 106.84,-27.91 105.68,-27.31 104.56,-26.69 103.46,-26.04 102.4,-25.36 101.38,-24.65 100.4,-23.93 99.47,-23.18 98.58,-22.41 97.75,-21.63 96.98,-20.83 96.27,-20.02 95.63,-19.19 95.06,-18.36 94.56,-17.53 94.15,-16.69 93.82,-15.85 93.57,-15.01 93.42,-14.17 93.36,-13.34 93.4,-12.52 93.53,-11.71 93.77,-10.91 94.1,-10.13 94.55,-9.36 95.09,-8.61 95.74,-7.88 96.49,-7.18 97.35,-6.5 98.31,-5.85 99.36,-5.22 100.52,-4.63 101.76,-4.07 103.1,-3.54 104.52,-3.04 106.02,-2.59 107.6,-2.17 109.25,-1.79 110.96,-1.44 112.73,-1.14 114.55,-0.88 116.41,-0.67 118.3,-0.49 120.23,-0.36 122.18,-0.27 124.13,-0.23 126.09,-0.23 128.05,-0.27"/>
<text text-anchor="middle" x="125.11" y="-12.57" font-family="terminus" font-size="14.00" fill="white">lala</text>
</g>
<!-- bla&#45;&gt;lala -->
<g id="edge1" class="edge">
<title>bla&#45;&gt;lala</title>
<path fill="none" stroke="#ffffff" d="M57.29,-16.27C65.5,-16.27 74.68,-16.27 83.54,-16.27"/>
<polygon fill="transparent" stroke="#ffffff" points="83.72,-19.77 93.72,-16.27 83.72,-12.77 83.72,-19.77"/>
</g>
</g>
</svg>
